<?xml version="1.0" encoding="iso-8859-1"?>
<!-- Uploaded to: SVG Repo, www.svgrepo.com, Generator: SVG Repo Mixer Tools -->
<svg height="800px" width="800px" version="1.1" id="Layer_1" xmlns="http://www.w3.org/2000/svg" xmlns:xlink="http://www.w3.org/1999/xlink" 
	 viewBox="0 0 512 512" xml:space="preserve">
<g transform="translate(1 1)">
	<g>
		<path style="fill:#FFFFFF;" d="M220.867,468.333V331.8H203.8v136.533c0,18.773,15.36,34.133,34.133,34.133
			C227.693,502.467,220.867,487.107,220.867,468.333"/>
		<path style="fill:#FFFFFF;" d="M178.2,289.133l8.533,42.667H203.8v-42.667H178.2z"/>
	</g>
	<g>
		<path style="fill:#FD9808;" d="M263.533,289.133V331.8H280.6l8.533-42.667H263.533z"/>
		<path style="fill:#FD9808;" d="M255,468.333c0,18.773-5.973,34.133-17.067,34.133c18.773,0,34.133-15.36,34.133-34.133V331.8
			H252.44L255,468.333z"/>
	</g>
	<g>
		<path style="fill:#FFDD09;" d="M272.067,289.133H203.8v34.133c0,5.12,3.413,8.533,8.533,8.533l0,0c5.12,0,8.533,3.413,8.533,8.533
			v128c0,18.773,5.973,34.133,17.067,34.133c11.093,0,17.067-15.36,17.067-34.133l-2.56-126.293c0-5.12,4.267-10.24,9.387-10.24l0,0
			c5.12,0,9.387-4.267,9.387-9.387L272.067,289.133L272.067,289.133z"/>
		<path style="fill:#FFDD09;" d="M237.933,306.2c-5.12,0-8.533-3.413-8.533-8.533v-59.733c0-18.773,15.36-34.133,34.133-34.133
			c70.827-5.973,179.2-15.36,186.027-17.067c15.36-3.413,27.307-17.92,27.307-34.133v-34.133c0-18.773-15.36-34.133-34.133-34.133
			c-5.12,0-8.533-3.413-8.533-8.533s3.413-8.533,8.533-8.533c28.16,0,51.2,23.04,51.2,51.2V152.6c0,24.747-17.067,46.08-40.96,51.2
			c-7.68,1.707-158.72,14.507-188.587,17.067c-10.24,0-17.92,7.68-17.92,17.067v59.733C246.467,302.787,243.053,306.2,237.933,306.2
			z"/>
	</g>
	<g>
		<path id="SVGCleanerId_0" d="M425.667,135.533H58.733c-14.507,0-25.6-11.093-25.6-25.6V24.6c0-14.507,11.093-25.6,25.6-25.6
			h366.933c14.507,0,25.6,11.093,25.6,25.6v85.333C451.267,124.44,440.173,135.533,425.667,135.533z M58.733,16.067
			c-4.267,0-8.533,4.267-8.533,8.533v85.333c0,5.12,3.413,8.533,8.533,8.533h366.933c5.12,0,8.533-3.413,8.533-8.533V24.6
			c0-5.12-3.413-8.533-8.533-8.533H58.733z"/>
	</g>
	<path style="fill:#FFDD09;" d="M400.067,127H84.333c-9.387,0-17.067-7.68-17.067-17.067V24.6c0-9.387,7.68-17.067,17.067-17.067
		h315.733c9.387,0,17.067,7.68,17.067,17.067v85.333C417.133,119.32,409.453,127,400.067,127"/>
	<path style="fill:#FFFFFF;" d="M67.267,109.933V24.6c0-9.387,7.68-17.067,17.067-17.067h-25.6c-9.387,0-17.067,7.68-17.067,17.067
		v85.333c0,9.387,7.68,17.067,17.067,17.067h25.6C74.947,127,67.267,119.32,67.267,109.933"/>
	<path style="fill:#FD9808;" d="M425.667,7.533h-25.6c9.387,0,17.067,7.68,17.067,17.067v85.333c0,9.387-7.68,17.067-17.067,17.067
		h25.6c9.387,0,17.067-7.68,17.067-17.067V24.6C442.733,15.213,435.053,7.533,425.667,7.533"/>
	<path style="fill:#54C9FD;" d="M161.133,127h-102.4v59.733c0,14.507,11.093,25.6,25.6,25.6s25.6-11.093,25.6-25.6V255
		c0,14.507,11.093,25.6,25.6,25.6s25.6-11.093,25.6-25.6v-89.6c0,11.947,9.387,21.333,21.333,21.333
		c11.947,0,21.333-9.387,21.333-21.333V127H161.133z"/>
	<g>
		<path id="SVGCleanerId_0_1_" d="M425.667,135.533H58.733c-14.507,0-25.6-11.093-25.6-25.6V24.6c0-14.507,11.093-25.6,25.6-25.6
			h366.933c14.507,0,25.6,11.093,25.6,25.6v85.333C451.267,124.44,440.173,135.533,425.667,135.533z M58.733,16.067
			c-4.267,0-8.533,4.267-8.533,8.533v85.333c0,5.12,3.413,8.533,8.533,8.533h366.933c5.12,0,8.533-3.413,8.533-8.533V24.6
			c0-5.12-3.413-8.533-8.533-8.533H58.733z"/>
	</g>
	<path d="M237.933,297.667c-5.12,0-8.533-3.413-8.533-8.533V229.4c0-18.773,15.36-34.133,34.133-34.133
		c70.827-5.973,179.2-15.36,186.027-17.067c15.36-3.413,27.307-17.92,27.307-34.133v-34.133c0-18.773-15.36-34.133-34.133-34.133
		c-5.12,0-8.533-3.413-8.533-8.533s3.413-8.533,8.533-8.533c28.16,0,51.2,23.04,51.2,51.2v34.133c0,24.747-17.067,46.08-40.96,51.2
		c-7.68,1.707-158.72,14.507-188.587,17.067c-10.24,0-17.92,7.68-17.92,17.067v59.733
		C246.467,294.253,243.053,297.667,237.933,297.667z"/>
	<path d="M41.667,75.8H24.6c-5.12,0-8.533-3.413-8.533-8.533s3.413-8.533,8.533-8.533h17.067c5.12,0,8.533,3.413,8.533,8.533
		S46.787,75.8,41.667,75.8z"/>
	<path d="M229.4,434.2h-25.6c-5.12,0-8.533-3.413-8.533-8.533s3.413-8.533,8.533-8.533h25.6c5.12,0,8.533,3.413,8.533,8.533
		S234.52,434.2,229.4,434.2z"/>
	<path d="M229.4,468.333h-25.6c-5.12,0-8.533-3.413-8.533-8.533s3.413-8.533,8.533-8.533h25.6c5.12,0,8.533,3.413,8.533,8.533
		S234.52,468.333,229.4,468.333z"/>
	<path d="M75.8,101.4c-1.707,0-4.267-0.853-5.12-1.707c-3.413-3.413-4.267-8.533-0.853-11.947l42.667-51.2
		c3.413-3.413,8.533-4.267,11.947-0.853s4.267,8.533,0.853,11.947l-42.667,51.2C80.92,100.547,78.36,101.4,75.8,101.4z"/>
	<path d="M135.533,101.4c-1.707,0-4.267-0.853-5.12-1.707c-3.413-3.413-4.267-8.533-0.853-11.947l42.667-51.2
		c3.413-3.413,8.533-4.267,11.947-0.853s4.267,8.533,0.853,11.947l-42.667,51.2C140.653,100.547,138.093,101.4,135.533,101.4z"/>
	<path d="M195.267,101.4c-1.707,0-4.267-0.853-5.12-1.707c-3.413-3.413-4.267-8.533-0.853-11.947l42.667-51.2
		c3.413-3.413,8.533-4.267,11.947-0.853c3.413,3.413,4.267,8.533,0.853,11.947l-42.667,51.2
		C200.387,100.547,197.827,101.4,195.267,101.4z"/>
	<path d="M255,101.4c-1.707,0-4.267-0.853-5.12-1.707c-3.413-3.413-4.267-8.533-0.853-11.947l42.667-51.2
		c3.413-3.413,8.533-4.267,11.947-0.853c3.413,3.413,4.267,8.533,0.853,11.947l-42.667,51.2C260.12,100.547,257.56,101.4,255,101.4z
		"/>
	<path d="M314.733,101.4c-1.707,0-4.267-0.853-5.12-1.707c-3.413-3.413-4.267-8.533-0.853-11.947l42.667-51.2
		c3.413-3.413,8.533-4.267,11.947-0.853c3.413,3.413,4.267,8.533,0.853,11.947l-42.667,51.2
		C319.853,100.547,317.293,101.4,314.733,101.4z"/>
	<path d="M365.933,101.4c-1.707,0-4.267-0.853-5.12-1.707c-3.413-3.413-4.267-8.533-0.853-11.947l42.667-51.2
		c3.413-3.413,8.533-4.267,11.947-0.853s4.267,8.533,0.853,11.947l-42.667,51.2C371.053,100.547,368.493,101.4,365.933,101.4z"/>
	<path d="M237.933,511c-23.893,0-42.667-18.773-42.667-42.667v-128h-8.533c-4.267,0-7.68-2.56-8.533-6.827l-8.533-42.667
		c-0.853-2.56,0-5.12,1.707-6.827c1.707-1.707,4.267-3.413,6.827-3.413h119.467c2.56,0,5.12,0.853,6.827,3.413
		c1.707,1.707,2.56,4.267,1.707,6.827l-8.533,42.667c-0.853,4.267-4.267,6.827-8.533,6.827H280.6v128
		C280.6,492.227,261.827,511,237.933,511z M193.56,323.267h10.24c5.12,0,8.533,3.413,8.533,8.533v136.533
		c0,14.507,11.093,25.6,25.6,25.6c14.507,0,25.6-11.093,25.6-25.6V331.8c0-5.12,3.413-8.533,8.533-8.533h10.24l5.12-25.6H188.44
		L193.56,323.267z"/>
	<path d="M135.533,289.133c-18.773,0-34.133-15.36-34.133-34.133v-38.4c-5.12,2.56-11.093,4.267-17.067,4.267
		c-18.773,0-34.133-15.36-34.133-34.133V127c0-5.12,3.413-8.533,8.533-8.533H203.8c5.12,0,8.533,3.413,8.533,8.533v38.4
		c0,16.213-13.653,29.867-29.867,29.867c-4.267,0-8.533-0.853-12.8-2.56V255C169.667,273.773,154.307,289.133,135.533,289.133z
		 M118.467,186.733V255c0,9.387,7.68,17.067,17.067,17.067S152.6,264.387,152.6,255v-89.6c0-5.12,3.413-8.533,8.533-8.533
		c5.12,0,8.533,3.413,8.533,8.533c0,6.827,5.973,12.8,12.8,12.8s12.8-5.973,12.8-12.8v-29.867h-128v51.2
		c0,9.387,7.68,17.067,17.067,17.067s17.067-7.68,17.067-17.067c0-5.12,3.413-8.533,8.533-8.533S118.467,182.467,118.467,186.733z"
		/>
	<path d="M109.933,195.267c-5.12,0-8.533-3.413-8.533-8.533v-25.6c0-5.12,3.413-8.533,8.533-8.533s8.533,3.413,8.533,8.533v25.6
		C118.467,191.853,115.053,195.267,109.933,195.267z"/>
	<path d="M161.133,178.2c-5.12,0-8.533-3.413-8.533-8.533V152.6c0-5.12,3.413-8.533,8.533-8.533c5.12,0,8.533,3.413,8.533,8.533
		v17.067C169.667,174.787,166.253,178.2,161.133,178.2z"/>
	<g>
		<path id="SVGCleanerId_0_2_" d="M425.667,135.533H58.733c-14.507,0-25.6-11.093-25.6-25.6V24.6c0-14.507,11.093-25.6,25.6-25.6
			h366.933c14.507,0,25.6,11.093,25.6,25.6v85.333C451.267,124.44,440.173,135.533,425.667,135.533z M58.733,16.067
			c-4.267,0-8.533,4.267-8.533,8.533v85.333c0,5.12,3.413,8.533,8.533,8.533h366.933c5.12,0,8.533-3.413,8.533-8.533V24.6
			c0-5.12-3.413-8.533-8.533-8.533H58.733z"/>
	</g>
</g>
</svg>