<?xml version="1.0" encoding="iso-8859-1"?>
<!-- Uploaded to: SVG Repo, www.svgrepo.com, Generator: SVG Repo Mixer Tools -->
<svg height="800px" width="800px" version="1.1" id="Layer_1" xmlns="http://www.w3.org/2000/svg" xmlns:xlink="http://www.w3.org/1999/xlink" 
	 viewBox="0 0 503.607 503.607" xml:space="preserve">
<g transform="translate(1 1)">
	<path style="fill:#54C9FD;" d="M74.541,424.548L74.541,424.548c-13.43,13.429-36.092,13.429-49.521,0
		c-13.43-13.43-13.43-35.252,0-53.718l24.341-35.252l25.18,35.252C87.97,392.652,87.97,410.279,74.541,424.548"/>
	<g>
		<path style="fill:#FFDD09;" d="M217.229,167.708h67.148v-33.574h-67.148V167.708z"/>
		<path style="fill:#FFDD09;" d="M494.213,100.561H343.131l-41.967,33.574h-83.934v-33.574h67.148l41.967-33.574h167.869V100.561z"
			/>
		<path style="fill:#FFDD09;" d="M267.59,100.561h-33.574V83.774c0-9.233,7.554-16.787,16.787-16.787
			c9.233,0,16.787,7.554,16.787,16.787V100.561z"/>
		<path style="fill:#FFDD09;" d="M326.344,184.495v117.508h151.082c9.233,0,16.787-7.554,16.787-16.787v-83.934
			c0-9.233-7.554-16.787-16.787-16.787H326.344z"/>
		<path style="fill:#FFDD09;" d="M309.557,318.79H192.049c-9.233,0-16.787-7.554-16.787-16.787V184.495
			c0-9.233,7.554-16.787,16.787-16.787h117.508c9.233,0,16.787,7.554,16.787,16.787v117.508
			C326.344,311.236,318.79,318.79,309.557,318.79"/>
	</g>
	<path style="fill:#FD9808;" d="M309.557,167.708h-25.18c9.233,0,16.787,7.554,16.787,16.787v117.508
		c0,9.233-7.554,16.787-16.787,16.787h25.18c9.233,0,16.787-7.554,16.787-16.787V184.495
		C326.344,175.262,318.79,167.708,309.557,167.708"/>
	<path style="fill:#FFDD09;" d="M175.262,184.495H24.18c-9.233,0-16.787,7.554-16.787,16.787v83.934
		c0,9.233,7.554,16.787,16.787,16.787h151.082V184.495z"/>
	<path style="fill:#FFFFFF;" d="M32.574,285.216v-83.934c0-9.233,7.554-16.787,16.787-16.787H24.18
		c-9.233,0-16.787,7.554-16.787,16.787v83.934c0,9.233,7.554,16.787,16.787,16.787h25.18
		C40.128,302.003,32.574,294.449,32.574,285.216"/>
	<path style="fill:#FD9808;" d="M469.033,285.216v-83.934c0-9.233-7.554-16.787-16.787-16.787h25.18
		c9.233,0,16.787,7.554,16.787,16.787v83.934c0,9.233-7.554,16.787-16.787,16.787h-25.18
		C461.479,302.003,469.033,294.449,469.033,285.216"/>
	<path d="M309.557,327.184H192.049c-14.269,0-25.18-10.911-25.18-25.18V184.495c0-14.269,10.911-25.18,25.18-25.18h117.508
		c14.269,0,25.18,10.911,25.18,25.18v117.508C334.738,316.272,323.826,327.184,309.557,327.184z M192.049,176.102
		c-5.036,0-8.393,3.357-8.393,8.393v117.508c0,5.036,3.357,8.393,8.393,8.393h117.508c5.036,0,8.393-3.357,8.393-8.393V184.495
		c0-5.036-3.357-8.393-8.393-8.393H192.049z"/>
	<path d="M175.262,310.397H24.18C9.911,310.397-1,299.485-1,285.216v-83.934c0-14.269,10.911-25.18,25.18-25.18h151.082
		c5.036,0,8.393,3.357,8.393,8.393v117.508C183.656,307.039,180.298,310.397,175.262,310.397z M24.18,192.889
		c-5.036,0-8.393,3.357-8.393,8.393v83.934c0,5.036,3.357,8.393,8.393,8.393h142.689V192.889H24.18z"/>
	<path d="M477.426,310.397H326.344c-5.036,0-8.393-3.357-8.393-8.393V184.495c0-5.036,3.357-8.393,8.393-8.393h151.082
		c14.269,0,25.18,10.911,25.18,25.18v83.934C502.607,299.485,491.695,310.397,477.426,310.397z M334.738,293.61h142.689
		c5.036,0,8.393-3.357,8.393-8.393v-83.934c0-5.036-3.357-8.393-8.393-8.393H334.738V293.61z"/>
	<path d="M410.279,226.462h-83.934c-5.036,0-8.393-3.357-8.393-8.393s3.357-8.393,8.393-8.393h83.934
		c5.036,0,8.393,3.357,8.393,8.393S415.315,226.462,410.279,226.462z"/>
	<path d="M452.246,218.069c0-5.036-3.357-8.393-8.393-8.393c-5.036,0-8.393,3.357-8.393,8.393s3.357,8.393,8.393,8.393
		C448.888,226.462,452.246,223.105,452.246,218.069"/>
	<path d="M494.213,226.462h-16.787c-5.036,0-8.393-3.357-8.393-8.393s3.357-8.393,8.393-8.393h16.787
		c5.036,0,8.393,3.357,8.393,8.393S499.249,226.462,494.213,226.462z"/>
	<path d="M284.377,176.102h-67.148c-5.036,0-8.393-3.357-8.393-8.393v-33.574c0-5.036,3.357-8.393,8.393-8.393h67.148
		c5.036,0,8.393,3.357,8.393,8.393v33.574C292.77,172.744,289.413,176.102,284.377,176.102z M225.623,159.315h50.361v-16.787
		h-50.361V159.315z"/>
	<path d="M301.164,142.528h-83.934c-5.036,0-8.393-3.357-8.393-8.393v-33.574c0-5.036,3.357-8.393,8.393-8.393h63.79l39.449-31.895
		c2.518-0.839,4.197-1.679,5.875-1.679h167.869c5.036,0,8.393,3.357,8.393,8.393v33.574c0,5.036-3.357,8.393-8.393,8.393H346.489
		l-39.449,31.895C305.361,141.689,302.843,142.528,301.164,142.528z M225.623,125.741h72.184l39.449-31.895
		c2.518-0.839,4.197-1.679,5.875-1.679H485.82V75.38H329.702l-39.449,31.895c-1.679,0.839-4.197,1.679-5.875,1.679h-58.754V125.741z
		"/>
	<path d="M267.59,108.954h-33.574c-5.036,0-8.393-3.357-8.393-8.393V83.774c0-14.269,10.911-25.18,25.18-25.18
		c14.269,0,25.18,10.911,25.18,25.18v16.787C275.984,105.597,272.626,108.954,267.59,108.954z M242.41,92.167h16.787v-8.393
		c0-5.036-3.357-8.393-8.393-8.393s-8.393,3.357-8.393,8.393V92.167z"/>
	<path d="M49.361,310.397c-5.036,0-8.393-3.357-8.393-8.393V268.43c0-5.036,3.357-8.393,8.393-8.393s8.393,3.357,8.393,8.393v33.574
		C57.754,307.039,54.397,310.397,49.361,310.397z"/>
	<path d="M82.934,276.823c-5.036,0-8.393-3.357-8.393-8.393v-33.574c0-5.036,3.357-8.393,8.393-8.393
		c5.036,0,8.393,3.357,8.393,8.393v33.574C91.328,273.466,87.97,276.823,82.934,276.823z"/>
	<path d="M82.934,276.823H49.361c-5.036,0-8.393-3.357-8.393-8.393s3.357-8.393,8.393-8.393h33.574c5.036,0,8.393,3.357,8.393,8.393
		S87.97,276.823,82.934,276.823z"/>
	<path d="M116.508,243.249H82.934c-5.036,0-8.393-3.357-8.393-8.393s3.357-8.393,8.393-8.393h33.574
		c5.036,0,8.393,3.357,8.393,8.393S121.544,243.249,116.508,243.249z"/>
	<path d="M49.361,443.013c-11.751,0-22.662-4.197-30.216-12.59c-16.787-16.787-16.787-42.807-0.839-64.629l24.341-34.413
		c3.357-4.197,10.911-4.197,13.43,0l24.341,35.252c20.144,32.734,10.911,52.879-0.839,64.63
		C72.023,437.977,61.111,443.013,49.361,443.013z M49.361,349.846l-17.626,25.18c-10.911,15.108-11.751,31.895-0.839,42.807
		c10.072,10.072,27.698,10.072,36.931,0c4.197-4.197,15.948-15.948-0.839-43.646L49.361,349.846z"/>
</g>
</svg>