<?xml version="1.0" encoding="iso-8859-1"?>
<!-- Uploaded to: SVG Repo, www.svgrepo.com, Generator: SVG Repo Mixer Tools -->
<svg height="800px" width="800px" version="1.1" id="Layer_1" xmlns="http://www.w3.org/2000/svg" xmlns:xlink="http://www.w3.org/1999/xlink" 
	 viewBox="0 0 512 512" xml:space="preserve">
<g transform="translate(1 1)">
	<g>
		<path style="fill:#FCC309;" d="M152.433,144.067h42.667V75.8h-42.667V144.067z"/>
		<path style="fill:#FCC309;" d="M152.433,255h42.667v-42.667h-42.667V255z"/>
	</g>
	<g>
		<path style="fill:#FFFFFF;" d="M152.433,144.067h17.067V75.8h-17.067V144.067z"/>
		<path style="fill:#FFFFFF;" d="M152.433,255h17.067v-42.667h-17.067V255z"/>
	</g>
	<path style="fill:#FFDD09;" d="M365.766,75.8H143.899l5.12-18.773c6.827-29.013,33.28-49.493,63.147-49.493h85.333
		c29.867,0,56.32,20.48,63.147,49.493L365.766,75.8z"/>
	<path style="fill:#FD9808;" d="M361.499,57.027c-7.68-29.013-33.28-49.493-64-49.493h-25.6c29.867,0,56.32,20.48,63.147,49.493
		l5.12,18.773h25.6L361.499,57.027z"/>
	<path style="fill:#FFFFFF;" d="M149.019,57.027c6.827-29.013,33.28-49.493,63.147-49.493h25.6c-29.867,0-56.32,20.48-63.147,49.493
		l-5.12,18.773h-25.6L149.019,57.027z"/>
	<path style="fill:#FFDD09;" d="M143.899,144.067v68.267h85.333v256c0,18.773,15.36,34.133,34.133,34.133
		s34.133-15.36,34.133-34.133v-256l0,0c29.867,0,56.32-20.48,63.147-49.493l5.12-18.773H143.899z"/>
	<path style="fill:#FD9808;" d="M344.433,144.067l-4.267,18.773c-7.68,29.013-33.28,49.493-63.147,49.493l0,0v256
		c0,14.507-8.533,26.453-21.333,31.573c4.267,1.707,8.533,2.56,12.8,2.56c18.773,0,34.133-15.36,34.133-34.133v-256l0,0
		c29.867,0,56.32-20.48,63.147-49.493l5.12-18.773H344.433z"/>
	<path d="M254.833,468.333h-25.6c-5.12,0-8.533-3.413-8.533-8.533s3.413-8.533,8.533-8.533h25.6c5.12,0,8.533,3.413,8.533,8.533
		S259.953,468.333,254.833,468.333z"/>
	<path d="M254.833,434.2h-25.6c-5.12,0-8.533-3.413-8.533-8.533s3.413-8.533,8.533-8.533h25.6c5.12,0,8.533,3.413,8.533,8.533
		S259.953,434.2,254.833,434.2z"/>
	<path d="M365.766,84.333H143.899c-2.56,0-5.12-0.853-6.827-3.413c-1.707-2.56-1.707-4.267-1.707-6.827l5.12-18.773
		C149.019,22.04,178.033-1,212.166-1h85.333c34.133,0,63.147,23.04,71.68,55.467l5.12,19.627c0.853,2.56,0,5.12-1.707,7.68
		C370.886,84.333,368.326,84.333,365.766,84.333z M154.993,67.267h199.68l-1.707-8.533c-5.973-25.6-29.013-42.667-54.613-42.667
		h-86.187c-26.453,0-48.64,17.92-55.467,42.667L154.993,67.267z"/>
	<path d="M263.366,511c-23.893,0-42.667-18.773-42.667-42.667V220.867h-76.8c-5.12,0-8.533-3.413-8.533-8.533v-68.267
		c0-5.12,3.413-8.533,8.533-8.533h221.867c2.56,0,5.12,0.853,6.827,3.413c1.707,2.56,2.56,5.12,1.707,7.68l-5.12,18.773
		c-7.68,29.867-33.28,52.053-63.147,55.467v247.467C306.033,492.227,287.259,511,263.366,511z M152.433,203.8h76.8
		c5.12,0,8.533,3.413,8.533,8.533v256c0,14.507,11.093,25.6,25.6,25.6c14.507,0,25.6-11.093,25.6-25.6v-256
		c0-5.12,3.413-8.533,8.533-8.533c26.453,0,48.64-17.92,55.467-42.667l1.707-8.533h-202.24V203.8z"/>
	<path d="M195.099,152.6h-42.667c-5.12,0-8.533-3.413-8.533-8.533V75.8c0-5.12,3.413-8.533,8.533-8.533h42.667
		c5.12,0,8.533,3.413,8.533,8.533v68.267C203.633,149.187,200.219,152.6,195.099,152.6z M160.966,135.533h25.6v-51.2h-25.6V135.533z
		"/>
	<path d="M195.099,263.533h-42.667c-5.12,0-8.533-3.413-8.533-8.533v-42.667c0-5.12,3.413-8.533,8.533-8.533h42.667
		c5.12,0,8.533,3.413,8.533,8.533V255C203.633,260.12,200.219,263.533,195.099,263.533z M160.966,246.467h25.6v-25.6h-25.6V246.467z
		"/>
</g>
</svg>